  0
SECTION
  2
HEADER
  9
$ACADVER
  1
AC1015
  9
$ACADMAINTVER
 70
     6
  9
$DWGCODEPAGE
  3
ANSI_1252
  9
$INSBASE
 10
0.0
 20
0.0
 30
0.0
  9
$EXTMIN
 10
-74.6979569134
 20
-0.0857855653
 30
0.0
  9
$EXTMAX
 10
75.9972604642
 20
239.6522233637
 30
0.0
  9
$LIMMIN
 10
0.0
 20
0.0
  9
$LIMMAX
 10
420.0
 20
297.0
  9
$ORTHOMODE
 70
     0
  9
$REGENMODE
 70
     1
  9
$FILLMODE
 70
     1
  9
$QTEXTMODE
 70
     0
  9
$MIRRTEXT
 70
     1
  9
$LTSCALE
 40
1.0
  9
$ATTMODE
 70
     1
  9
$TEXTSIZE
 40
3.5
  9
$TRACEWID
 40
1.0
  9
$TEXTSTYLE
  7
Standard
  9
$CLAYER
  8
0
  9
$CELTYPE
  6
ByLayer
  9
$CECOLOR
 62
   256
  9
$CELTSCALE
 40
1.0
  9
$DISPSILH
 70
     0
  9
$DIMSCALE
 40
1.0
  9
$DIMASZ
 40
3.302
  9
$DIMEXO
 40
1.0
  9
$DIMDLI
 40
3.75
  9
$DIMRND
 40
0.0
  9
$DIMDLE
 40
0.0
  9
$DIMEXE
 40
1.0
  9
$DIMTP
 40
0.0
  9
$DIMTM
 40
0.0
  9
$DIMTXT
 40
3.5
  9
$DIMCEN
 40
2.5
  9
$DIMTSZ
 40
0.0
  9
$DIMTOL
 70
     0
  9
$DIMLIM
 70
     0
  9
$DIMTIH
 70
     1
  9
$DIMTOH
 70
     1
  9
$DIMSE1
 70
     0
  9
$DIMSE2
 70
     0
  9
$DIMTAD
 70
     1
  9
$DIMZIN
 70
     0
  9
$DIMBLK
  1

  9
$DIMASO
 70
     1
  9
$DIMSHO
 70
     1
  9
$DIMPOST
  1

  9
$DIMAPOST
  1

  9
$DIMALT
 70
     0
  9
$DIMALTD
 70
     3
  9
$DIMALTF
 40
0.0393700787
  9
$DIMLFAC
 40
1.0
  9
$DIMTOFL
 70
     1
  9
$DIMTVP
 40
0.0
  9
$DIMTIX
 70
     0
  9
$DIMSOXD
 70
     0
  9
$DIMSAH
 70
     0
  9
$DIMBLK1
  1

  9
$DIMBLK2
  1

  9
$DIMSTYLE
  2
ISO-25
  9
$DIMCLRD
 70
     0
  9
$DIMCLRE
 70
     0
  9
$DIMCLRT
 70
     0
  9
$DIMTFAC
 40
1.0
  9
$DIMGAP
 40
1.524
  9
$DIMJUST
 70
     0
  9
$DIMSD1
 70
     0
  9
$DIMSD2
 70
     0
  9
$DIMTOLJ
 70
     0
  9
$DIMTZIN
 70
     0
  9
$DIMALTZ
 70
     0
  9
$DIMALTTZ
 70
     0
  9
$DIMUPT
 70
     0
  9
$DIMDEC
 70
     2
  9
$DIMTDEC
 70
     2
  9
$DIMALTU
 70
     2
  9
$DIMALTTD
 70
     3
  9
$DIMTXSTY
  7
Standard
  9
$DIMAUNIT
 70
     0
  9
$DIMADEC
 70
     2
  9
$DIMALTRND
 40
0.0
  9
$DIMAZIN
 70
     0
  9
$DIMDSEP
 70
    44
  9
$DIMATFIT
 70
     3
  9
$DIMFRAC
 70
     0
  9
$DIMLDRBLK
  1

  9
$DIMLUNIT
 70
     2
  9
$DIMLWD
 70
    -2
  9
$DIMLWE
 70
    -2
  9
$DIMTMOVE
 70
     0
  9
$LUNITS
 70
     2
  9
$LUPREC
 70
     2
  9
$SKETCHINC
 40
1.0
  9
$FILLETRAD
 40
10.0
  9
$AUNITS
 70
     0
  9
$AUPREC
 70
     2
  9
$MENU
  1
.
  9
$ELEVATION
 40
0.0
  9
$PELEVATION
 40
0.0
  9
$THICKNESS
 40
0.0
  9
$LIMCHECK
 70
     0
  9
$CHAMFERA
 40
0.0
  9
$CHAMFERB
 40
0.0
  9
$CHAMFERC
 40
0.0
  9
$CHAMFERD
 40
0.0
  9
$SKPOLY
 70
     0
  9
$TDCREATE
 40
2458301.666531562
  9
$TDUCREATE
 40
2458301.583198229
  9
$TDUPDATE
 40
2458301.666583206
  9
$TDUUPDATE
 40
2458301.583249873
  9
$TDINDWG
 40
0.0000000116
  9
$TDUSRTIMER
 40
0.0000000116
  9
$USRTIMER
 70
     1
  9
$ANGBASE
 50
0.0
  9
$ANGDIR
 70
     0
  9
$PDMODE
 70
     0
  9
$PDSIZE
 40
-1.0
  9
$PLINEWID
 40
0.0
  9
$SPLFRAME
 70
     0
  9
$SPLINETYPE
 70
     6
  9
$SPLINESEGS
 70
     8
  9
$HANDSEED
  5
E4
  9
$SURFTAB1
 70
     6
  9
$SURFTAB2
 70
     6
  9
$SURFTYPE
 70
     6
  9
$SURFU
 70
     6
  9
$SURFV
 70
     6
  9
$UCSBASE
  2

  9
$UCSNAME
  2

  9
$UCSORG
 10
0.0
 20
0.0
 30
0.0
  9
$UCSXDIR
 10
1.0
 20
0.0
 30
0.0
  9
$UCSYDIR
 10
0.0
 20
1.0
 30
0.0
  9
$UCSORTHOREF
  2

  9
$UCSORTHOVIEW
 70
     0
  9
$UCSORGTOP
 10
0.0
 20
0.0
 30
0.0
  9
$UCSORGBOTTOM
 10
0.0
 20
0.0
 30
0.0
  9
$UCSORGLEFT
 10
0.0
 20
0.0
 30
0.0
  9
$UCSORGRIGHT
 10
0.0
 20
0.0
 30
0.0
  9
$UCSORGFRONT
 10
0.0
 20
0.0
 30
0.0
  9
$UCSORGBACK
 10
0.0
 20
0.0
 30
0.0
  9
$PUCSBASE
  2

  9
$PUCSNAME
  2

  9
$PUCSORG
 10
0.0
 20
0.0
 30
0.0
  9
$PUCSXDIR
 10
1.0
 20
0.0
 30
0.0
  9
$PUCSYDIR
 10
0.0
 20
1.0
 30
0.0
  9
$PUCSORTHOREF
  2

  9
$PUCSORTHOVIEW
 70
     0
  9
$PUCSORGTOP
 10
0.0
 20
0.0
 30
0.0
  9
$PUCSORGBOTTOM
 10
0.0
 20
0.0
 30
0.0
  9
$PUCSORGLEFT
 10
0.0
 20
0.0
 30
0.0
  9
$PUCSORGRIGHT
 10
0.0
 20
0.0
 30
0.0
  9
$PUCSORGFRONT
 10
0.0
 20
0.0
 30
0.0
  9
$PUCSORGBACK
 10
0.0
 20
0.0
 30
0.0
  9
$USERI1
 70
     0
  9
$USERI2
 70
     0
  9
$USERI3
 70
     0
  9
$USERI4
 70
     0
  9
$USERI5
 70
     0
  9
$USERR1
 40
0.0
  9
$USERR2
 40
0.0
  9
$USERR3
 40
0.0
  9
$USERR4
 40
0.0
  9
$USERR5
 40
0.0
  9
$WORLDVIEW
 70
     1
  9
$SHADEDGE
 70
     3
  9
$SHADEDIF
 70
    70
  9
$TILEMODE
 70
     1
  9
$MAXACTVP
 70
    64
  9
$PINSBASE
 10
0.0
 20
0.0
 30
0.0
  9
$PLIMCHECK
 70
     0
  9
$PEXTMIN
 10
1.0000000000E+20
 20
1.0000000000E+20
 30
1.0000000000E+20
  9
$PEXTMAX
 10
-1.0000000000E+20
 20
-1.0000000000E+20
 30
-1.0000000000E+20
  9
$PLIMMIN
 10
0.0
 20
0.0
  9
$PLIMMAX
 10
420.0
 20
297.0
  9
$UNITMODE
 70
     0
  9
$VISRETAIN
 70
     1
  9
$PLINEGEN
 70
     0
  9
$PSLTSCALE
 70
     1
  9
$TREEDEPTH
 70
  3020
  9
$CMLSTYLE
  2
Standard
  9
$CMLJUST
 70
     0
  9
$CMLSCALE
 40
20.0
  9
$PROXYGRAPHICS
 70
     1
  9
$MEASUREMENT
 70
     1
  9
$CELWEIGHT
370
    -1
  9
$ENDCAPS
280
     0
  9
$JOINSTYLE
280
     0
  9
$LWDISPLAY
290
     1
  9
$INSUNITS
 70
     4
  9
$HYPERLINKBASE
  1

  9
$STYLESHEET
  1

  9
$XEDIT
290
     1
  9
$CEPSNTYPE
380
     0
  9
$PSTYLEMODE
290
     1
  9
$FINGERPRINTGUID
  2
{A85318E4-DAF9-40B7-AD2B-53C02BCF97DB}
  9
$VERSIONGUID
  2
{FAEB1C32-E019-11D5-929B-00C0DF256EC4}
  9
$EXTNAMES
290
     1
  9
$PSVPSCALE
 40
0.0
  9
$OLESTARTUP
290
     0
  0
ENDSEC
  0
SECTION
  2
CLASSES
  0
CLASS
  1
ACDBDICTIONARYWDFLT
  2
AcDbDictionaryWithDefault
  3
ObjectDBX Classes
 90
        0
280
     0
281
     0
  0
CLASS
  1
VISUALSTYLE
  2
AcDbVisualStyle
  3
ObjectDBX Classes
 90
     4095
280
     0
281
     0
  0
CLASS
  1
MATERIAL
  2
AcDbMaterial
  3
ObjectDBX Classes
 90
     1153
280
     0
281
     0
  0
CLASS
  1
SCALE
  2
AcDbScale
  3
ObjectDBX Classes
 90
     1153
280
     0
281
     0
  0
CLASS
  1
TABLESTYLE
  2
AcDbTableStyle
  3
ObjectDBX Classes
 90
     4095
280
     0
281
     0
  0
CLASS
  1
MLEADERSTYLE
  2
AcDbMLeaderStyle
  3
ACDB_MLEADERSTYLE_CLASS
 90
     4095
280
     0
281
     0
  0
CLASS
  1
SUN
  2
AcDbSun
  3
SCENEOE
 90
     1153
280
     0
281
     0
  0
CLASS
  1
ACDBPLACEHOLDER
  2
AcDbPlaceHolder
  3
ObjectDBX Classes
 90
        0
280
     0
281
     0
  0
CLASS
  1
LAYOUT
  2
AcDbLayout
  3
ObjectDBX Classes
 90
        0
280
     0
281
     0
  0
ENDSEC
  0
SECTION
  2
TABLES
  0
TABLE
  2
VPORT
  5
8
330
0
100
AcDbSymbolTable
 70
     1
  0
VPORT
  5
29
330
8
100
AcDbSymbolTableRecord
100
AcDbViewportTableRecord
  2
*Active
 70
     0
 10
0.0
 20
0.0
 11
1.0
 21
1.0
 12
0.6496517754
 22
119.7832188992
 13
0.0
 23
0.0
 14
10.0
 24
10.0
 15
10.0
 25
10.0
 16
0.0
 26
0.0
 36
1.0
 17
0.0
 27
0.0
 37
0.0
 40
244.5327691077
 41
0.6285829187
 42
50.0
 43
0.0
 44
0.0
 50
0.0
 51
0.0
 71
     0
 72
   100
 73
     1
 74
     3
 75
     0
 76
     0
 77
     0
 78
     0
281
     0
 65
     1
110
0.0
120
0.0
130
0.0
111
1.0
121
0.0
131
0.0
112
0.0
122
1.0
132
0.0
 79
     0
146
0.0
  0
ENDTAB
  0
TABLE
  2
LTYPE
  5
5
330
0
100
AcDbSymbolTable
 70
     6
  0
LTYPE
  5
14
330
5
100
AcDbSymbolTableRecord
100
AcDbLinetypeTableRecord
  2
ByBlock
 70
     0
  3

 72
    65
 73
     0
 40
0.0
  0
LTYPE
  5
15
330
5
100
AcDbSymbolTableRecord
100
AcDbLinetypeTableRecord
  2
ByLayer
 70
     0
  3

 72
    65
 73
     0
 40
0.0
  0
LTYPE
  5
16
330
5
100
AcDbSymbolTableRecord
100
AcDbLinetypeTableRecord
  2
Continuous
 70
     0
  3
Solid line
 72
    65
 73
     0
 40
0.0
  0
LTYPE
  5
6E
330
5
100
AcDbSymbolTableRecord
100
AcDbLinetypeTableRecord
  2
HIDDEN
 70
     0
  3
Hidden __ __ __ __ __ __ __ __ __ __ __ __ __ __
 72
    65
 73
     2
 40
1.905
 49
1.27
 74
     0
 49
-0.635
 74
     0
  0
LTYPE
  5
6F
330
5
100
AcDbSymbolTableRecord
100
AcDbLinetypeTableRecord
  2
PHANTOM
 70
     0
  3
Phantom ______  __  __  ______  __  __  ______
 72
    65
 73
     6
 40
12.7
 49
6.35
 74
     0
 49
-1.27
 74
     0
 49
1.27
 74
     0
 49
-1.27
 74
     0
 49
1.27
 74
     0
 49
-1.27
 74
     0
  0
LTYPE
  5
70
330
5
100
AcDbSymbolTableRecord
100
AcDbLinetypeTableRecord
  2
CENTER
 70
     0
  3
Center ____ _ ____ _ ____ _ ____ _ ____ _ ____
 72
    65
 73
     4
 40
10.16
 49
6.35
 74
     0
 49
-1.27
 74
     0
 49
1.27
 74
     0
 49
-1.27
 74
     0
  0
LTYPE
  5
71
330
5
100
AcDbSymbolTableRecord
100
AcDbLinetypeTableRecord
  2
CENTERX2
 70
     0
  3
Center (2x) ________  __  ________  __  _____
 72
    65
 73
     4
 40
20.32
 49
12.7
 74
     0
 49
-2.54
 74
     0
 49
2.54
 74
     0
 49
-2.54
 74
     0
  0
LTYPE
  5
72
330
5
100
AcDbSymbolTableRecord
100
AcDbLinetypeTableRecord
  2
DOT2
 70
     0
  3
Dot (.5x) ........................................
 72
    65
 73
     2
 40
0.635
 49
0.0
 74
     0
 49
-0.635
 74
     0
  0
ENDTAB
  0
TABLE
  2
LAYER
  5
2
330
0
100
AcDbSymbolTable
 70
     1
  0
LAYER
  5
10
330
2
100
AcDbSymbolTableRecord
100
AcDbLayerTableRecord
  2
0
 70
     0
 62
     7
  6
Continuous
370
    -3
390
F
  0
ENDTAB
  0
TABLE
  2
STYLE
  5
3
330
0
100
AcDbSymbolTable
 70
     1
  0
STYLE
  5
11
330
3
100
AcDbSymbolTableRecord
100
AcDbTextStyleTableRecord
  2
Standard
 70
     0
 40
0.0
 41
1.0
 50
0.0
 71
     0
 42
3.5
  3
txt
  4

  0
ENDTAB
  0
TABLE
  2
VIEW
  5
6
330
0
100
AcDbSymbolTable
 70
     0
  0
ENDTAB
  0
TABLE
  2
UCS
  5
7
330
0
100
AcDbSymbolTable
 70
     0
  0
ENDTAB
  0
TABLE
  2
APPID
  5
9
330
0
100
AcDbSymbolTable
 70
     1
  0
APPID
  5
12
330
9
100
AcDbSymbolTableRecord
100
AcDbRegAppTableRecord
  2
ACAD
 70
     0
  0
ENDTAB
  0
TABLE
  2
DIMSTYLE
  5
A
330
0
100
AcDbSymbolTable
 70
     1
100
AcDbDimStyleTable
  0
DIMSTYLE
105
27
330
A
100
AcDbSymbolTableRecord
100
AcDbDimStyleTableRecord
  2
ISO-25
 70
     0
 41
2.5
 42
0.625
 43
3.75
 44
1.25
 73
     0
 74
     0
 77
     1
 78
     8
140
2.5
141
2.5
143
0.0393700787
147
0.625
171
     3
172
     1
178
     0
271
     2
272
     2
274
     3
278
    44
283
     0
284
     8
340
11
  0
ENDTAB
  0
TABLE
  2
BLOCK_RECORD
  5
1
330
0
100
AcDbSymbolTable
 70
     1
  0
BLOCK_RECORD
  5
1F
330
1
100
AcDbSymbolTableRecord
100
AcDbBlockTableRecord
  2
*Model_Space
340
22
  0
BLOCK_RECORD
  5
1B
330
1
100
AcDbSymbolTableRecord
100
AcDbBlockTableRecord
  2
*Paper_Space
340
1E
  0
BLOCK_RECORD
  5
23
330
1
100
AcDbSymbolTableRecord
100
AcDbBlockTableRecord
  2
*Paper_Space0
340
26
  0
ENDTAB
  0
ENDSEC
  0
SECTION
  2
BLOCKS
  0
BLOCK
  5
20
330
1F
100
AcDbEntity
  8
0
100
AcDbBlockBegin
  2
*Model_Space
 70
     0
 10
0.0
 20
0.0
 30
0.0
  3
*Model_Space
  1

  0
ENDBLK
  5
21
330
1F
100
AcDbEntity
  8
0
100
AcDbBlockEnd
  0
BLOCK
  5
1C
330
1B
100
AcDbEntity
 67
     1
  8
0
100
AcDbBlockBegin
  2
*Paper_Space
 70
     0
 10
0.0
 20
0.0
 30
0.0
  3
*Paper_Space
  1

  0
ENDBLK
  5
1D
330
1B
100
AcDbEntity
 67
     1
  8
0
100
AcDbBlockEnd
  0
BLOCK
  5
24
330
23
100
AcDbEntity
  8
0
100
AcDbBlockBegin
  2
*Paper_Space0
 70
     0
 10
0.0
 20
0.0
 30
0.0
  3
*Paper_Space0
  1

  0
ENDBLK
  5
25
330
23
100
AcDbEntity
  8
0
100
AcDbBlockEnd
  0
ENDSEC
  0
SECTION
  2
ENTITIES
  0
LWPOLYLINE
  5
73
330
1F
100
AcDbEntity
  8
0
  6
Continuous
 62
     7
100
AcDbPolyline
 90
       17
 70
   128
 43
0.0
 10
-15.0055470559
 20
180.8547162748
 10
-15.2746516376
 20
181.3641256164
 10
-15.7214036029
 20
181.7303236842
 10
-16.2777890149
 20
181.8975601418
 10
-16.8591032382
 20
181.8403747546
 10
-17.376846452
 20
181.5674734794
 10
-17.7521969454
 20
181.1204030615
 10
-17.9280110082
 20
180.5672259194
 10
-17.8775225432
 20
179.9921582583
 10
-17.6084179615
 20
179.4827489167
 10
-17.1616659963
 20
179.1165508489
 10
-16.6052805843
 20
178.9493143913
 10
-16.023966361
 20
179.0064997785
 10
-15.5062231472
 20
179.2794010537
 10
-15.1308726538
 20
179.7264714716
 10
-14.955058591
 20
180.2796486137
 10
-15.0055470559
 20
180.8547162748
  0
LWPOLYLINE
  5
74
330
1F
100
AcDbEntity
  8
0
  6
Continuous
 62
     7
100
AcDbPolyline
 90
       17
 70
   128
 43
0.0
 10
22.8760729371
 20
180.8081469679
 10
22.6069683554
 20
181.3175563095
 10
22.1602163901
 20
181.6837543773
 10
21.6038309782
 20
181.8509908349
 10
21.0225167548
 20
181.7938054477
 10
20.504773541
 20
181.5209041725
 10
20.1294230477
 20
181.0738337546
 10
19.9536089848
 20
180.5206566125
 10
20.0040974498
 20
179.9455889514
 10
20.2732020315
 20
179.4361796098
 10
20.7199539968
 20
179.069981542
 10
21.2763394087
 20
178.9027450844
 10
21.857653632
 20
178.9599304716
 10
22.3753968459
 20
179.2328317468
 10
22.7507473392
 20
179.6799021647
 10
22.9265614021
 20
180.2330793068
 10
22.8760729371
 20
180.8081469679
  0
LWPOLYLINE
  5
75
330
1F
100
AcDbEntity
  8
0
  6
Continuous
 62
     7
100
AcDbPolyline
 90
       17
 70
   128
 43
0.0
 10
63.7899023337
 20
5.4361166354
 10
63.4310962248
 20
6.1153290909
 10
62.8354269377
 20
6.6035931812
 10
62.0935797218
 20
6.8265751247
 10
61.3184940907
 20
6.7503279418
 10
60.6281698056
 20
6.3864595749
 10
60.1277024811
 20
5.7903656844
 10
59.8932837306
 20
5.0527961615
 10
59.9606016839
 20
4.2860392801
 10
60.3194077929
 20
3.6068268246
 10
60.9150770799
 20
3.1185627343
 10
61.6569242958
 20
2.8955807908
 10
62.4320099269
 20
2.9718279737
 10
63.122334212
 20
3.3356963406
 10
63.6228015365
 20
3.9317902311
 10
63.857220287
 20
4.669359754
 10
63.7899023337
 20
5.4361166354
  0
LWPOLYLINE
  5
76
330
1F
100
AcDbEntity
  8
0
  6
Continuous
 62
     7
100
AcDbPolyline
 90
       17
 70
   128
 43
0.0
 10
-63.6371074712
 20
5.5927674737
 10
-63.2594941993
 20
6.271074621
 10
-62.6503165489
 20
6.7578575475
 10
-61.9023162949
 20
6.9790079651
 10
-61.1293696955
 20
6.9008577277
 10
-60.4491508636
 20
6.5353045004
 10
-59.9652169502
 20
5.9380004482
 10
-59.7512425067
 20
5.1998796987
 10
-59.8398032024
 20
4.4333144447
 10
-60.2174164743
 20
3.7550072974
 10
-60.8265941248
 20
3.268224371
 10
-61.5745943788
 20
3.0470739533
 10
-62.3475409782
 20
3.1252241907
 10
-63.0277598101
 20
3.4907774181
 10
-63.5116937235
 20
4.0880814702
 10
-63.725668167
 20
4.8262022198
 10
-63.6371074712
 20
5.5927674737
  0
LWPOLYLINE
  5
77
330
1F
100
AcDbEntity
  8
0
  6
Continuous
 62
     7
100
AcDbPolyline
 90
       17
 70
   128
 43
0.0
 10
34.7333508627
 20
19.8426908615
 10
35.0165608166
 20
20.3514212221
 10
35.4734440545
 20
20.7165084169
 10
36.0344442449
 20
20.8823712301
 10
36.6141541945
 20
20.823758552
 10
37.1243183184
 20
20.5495936315
 10
37.4872687535
 20
20.1016155924
 10
37.6477495861
 20
19.5480250303
 10
37.5813290643
 20
18.9731010898
 10
37.2981191104
 20
18.4643707293
 10
36.8412358725
 20
18.0992835345
 10
36.280235682
 20
17.9334207212
 10
35.7005257325
 20
17.9920333993
 10
35.1903616086
 20
18.2661983198
 10
34.8274111735
 20
18.7141763589
 10
34.6669303409
 20
19.2677669211
 10
34.7333508627
 20
19.8426908615
  0
LWPOLYLINE
  5
78
330
1F
100
AcDbEntity
  8
0
  6
Continuous
 62
     7
100
AcDbPolyline
 90
       17
 70
   128
 43
0.0
 10
4.308340543
 20
104.5408066447
 10
3.7701313796
 20
105.559625328
 10
2.8766274491
 20
106.2920214634
 10
1.7638566252
 20
106.6264943786
 10
0.6012281785
 20
106.5121236042
 10
-0.4342582491
 20
105.9663210539
 10
-1.1849592358
 20
105.0721802182
 10
-1.5365873615
 20
103.9658259339
 10
-1.4356104316
 20
102.8156906117
 10
-0.8974012682
 20
101.7968719284
 10
-0.0038973377
 20
101.064475793
 10
1.1088734863
 20
100.7300028778
 10
2.2715019329
 20
100.8443736522
 10
3.3069883606
 20
101.3901762025
 10
4.0576893473
 20
102.2843170383
 10
4.409317473
 20
103.3906713226
 10
4.308340543
 20
104.5408066447
  0
LWPOLYLINE
  5
79
330
1F
100
AcDbEntity
  8
0
  6
Continuous
 62
     7
100
AcDbPolyline
 90
       17
 70
   128
 43
0.0
 10
-34.1823733323
 20
19.9274115654
 10
-34.451477914
 20
20.4368209071
 10
-34.8982298792
 20
20.8030189748
 10
-35.4546152912
 20
20.9702554324
 10
-36.0359295145
 20
20.9130700452
 10
-36.5536727283
 20
20.64016877
 10
-36.9290232217
 20
20.1930983522
 10
-37.1048372845
 20
19.63992121
 10
-37.0543488196
 20
19.0648535489
 10
-36.7852442379
 20
18.5554442073
 10
-36.3384922726
 20
18.1892461396
 10
-35.7821068606
 20
18.022009682
 10
-35.2007926373
 20
18.0791950692
 10
-34.6830494235
 20
18.3520963443
 10
-34.3076989301
 20
18.7991667622
 10
-34.1318848673
 20
19.3523439044
 10
-34.1823733323
 20
19.9274115654
  0
LWPOLYLINE
  5
7A
330
1F
100
AcDbEntity
  8
0
  6
Continuous
 62
     7
100
AcDbPolyline
 90
       17
 70
   128
 43
0.0
 10
44.5294768975
 20
88.753171976
 10
44.2603723158
 20
89.2625813176
 10
43.8136203505
 20
89.6287793853
 10
43.2572349385
 20
89.7960158429
 10
42.6759207152
 20
89.7388304557
 10
42.1581775014
 20
89.4659291805
 10
41.782827008
 20
89.0188587627
 10
41.6070129452
 20
88.4656816205
 10
41.6575014102
 20
87.8906139594
 10
41.9266059918
 20
87.3812046178
 10
42.3733579571
 20
87.0150065501
 10
42.9297433691
 20
86.8477700925
 10
43.5110575924
 20
86.9049554797
 10
44.0288008062
 20
87.1778567549
 10
44.4041512996
 20
87.6249271727
 10
44.5799653624
 20
88.1781043149
 10
44.5294768975
 20
88.753171976
  0
LWPOLYLINE
  5
7B
330
1F
100
AcDbEntity
  8
0
  6
Continuous
 62
     7
100
AcDbPolyline
 90
       17
 70
   128
 43
0.0
 10
43.3803848529
 20
5.8105730734
 10
43.1112802712
 20
6.319982415
 10
42.6645283059
 20
6.6861804827
 10
42.108142894
 20
6.8534169403
 10
41.5268286706
 20
6.7962315531
 10
41.0090854568
 20
6.523330278
 10
40.6337349635
 20
6.0762598601
 10
40.4579209006
 20
5.523082718
 10
40.5084093656
 20
4.9480150569
 10
40.7775139473
 20
4.4386057152
 10
41.2242659125
 20
4.0724076475
 10
41.7806513245
 20
3.9051711899
 10
42.3619655478
 20
3.9623565771
 10
42.8797087617
 20
4.2352578523
 10
43.255059255
 20
4.6823282702
 10
43.4308733179
 20
5.2355054123
 10
43.3803848529
 20
5.8105730734
  0
LWPOLYLINE
  5
7C
330
1F
100
AcDbEntity
  8
0
  6
Continuous
 62
     7
100
AcDbPolyline
 90
       17
 70
   128
 43
0.0
 10
-40.3579330264
 20
5.9135157518
 10
-40.3074445614
 20
5.3384480907
 10
-40.4832586243
 20
4.7852709486
 10
-40.8586091176
 20
4.3382005307
 10
-41.3763523315
 20
4.0652992555
 10
-41.9576665548
 20
4.0081138683
 10
-42.5140519667
 20
4.1753503259
 10
-42.960803932
 20
4.5415483937
 10
-43.2299085137
 20
5.0509577353
 10
-43.2803969787
 20
5.6260253964
 10
-43.1045829158
 20
6.1792025385
 10
-42.7292324225
 20
6.6262729564
 10
-42.2114892087
 20
6.8991742316
 10
-41.6301749853
 20
6.9563596188
 10
-41.0737895734
 20
6.7891231612
 10
-40.6270376081
 20
6.4229250934
 10
-40.3579330264
 20
5.9135157518
  0
LWPOLYLINE
  5
7D
330
1F
100
AcDbEntity
  8
0
  6
Continuous
 62
     7
100
AcDbPolyline
 90
       17
 70
   128
 43
0.0
 10
-39.2088409819
 20
88.8561146544
 10
-39.1583525169
 20
88.2810469933
 10
-39.3341665797
 20
87.7278698511
 10
-39.7095170731
 20
87.2807994333
 10
-40.2272602869
 20
87.0078981581
 10
-40.8085745102
 20
86.9507127709
 10
-41.3649599222
 20
87.1179492285
 10
-41.8117118875
 20
87.4841472962
 10
-42.0808164691
 20
87.9935566379
 10
-42.1313049341
 20
88.5686242989
 10
-41.9554908713
 20
89.1218014411
 10
-41.5801403779
 20
89.568871859
 10
-41.0623971641
 20
89.8417731341
 10
-40.4810829408
 20
89.8989585213
 10
-39.9246975288
 20
89.7317220637
 10
-39.4779455635
 20
89.365523996
 10
-39.2088409819
 20
88.8561146544
  0
LWPOLYLINE
  5
7E
330
1F
100
AcDbEntity
  8
0
  6
Continuous
 62
     7
100
AcDbPolyline
 90
       17
 70
   128
 43
0.0
 10
31.7668230482
 20
210.913792846
 10
31.4977184665
 20
211.4232021877
 10
31.0509665012
 20
211.7894002554
 10
30.4945810893
 20
211.956636713
 10
29.9132668659
 20
211.8994513258
 10
29.3955236521
 20
211.6265500506
 10
29.0201731588
 20
211.1794796327
 10
28.8443590959
 20
210.6263024906
 10
28.8948475609
 20
210.0512348295
 10
29.1639521426
 20
209.5418254879
 10
29.6107041079
 20
209.1756274202
 10
30.1670895198
 20
209.0083909626
 10
30.7484037432
 20
209.0655763498
 10
31.266146957
 20
209.3384776249
 10
31.6414974503
 20
209.7855480428
 10
31.8173115132
 20
210.3387251849
 10
31.7668230482
 20
210.913792846
  0
LWPOLYLINE
  5
7F
330
1F
100
AcDbEntity
  8
0
  6
Continuous
 62
     7
100
AcDbPolyline
 90
       17
 70
   128
 43
0.0
 10
-23.061837468
 20
210.9811957902
 10
-23.3309420497
 20
211.4906051319
 10
-23.777694015
 20
211.8568031996
 10
-24.3340794269
 20
212.0240396572
 10
-24.9153936503
 20
211.96685427
 10
-25.4331368641
 20
211.6939529948
 10
-25.8084873574
 20
211.2468825769
 10
-25.9843014203
 20
210.6937054348
 10
-25.9338129553
 20
210.1186377737
 10
-25.6647083736
 20
209.6092284321
 10
-25.2179564083
 20
209.2430303644
 10
-24.6615709964
 20
209.0757939068
 10
-24.0802567731
 20
209.132979294
 10
-23.5625135592
 20
209.4058805691
 10
-23.1871630659
 20
209.852950987
 10
-23.011349003
 20
210.4061281291
 10
-23.061837468
 20
210.9811957902
  0
LWPOLYLINE
  5
80
330
1F
100
AcDbEntity
  8
0
  6
Continuous
 62
     7
100
AcDbPolyline
 90
        9
 70
   128
 43
0.0
 10
-20.3891512163
 20
93.8116779622
 10
-20.0314749916
 20
93.8431969127
 10
-19.6844896487
 20
93.9376119577
 10
-19.3594255529
 20
94.0918673043
 10
-19.0668035765
 20
94.3009703959
 10
-18.8160945855
 20
94.5581534998
 10
-18.6154129096
 20
94.8550927481
 10
-18.4712537181
 20
95.182177544
 10
-18.3882827998
 20
95.5288216141
  0
LWPOLYLINE
  5
81
330
1F
100
AcDbEntity
  8
0
  6
Continuous
 62
     7
100
AcDbPolyline
 90
        9
 70
   128
 43
0.0
 10
22.9877518554
 20
93.7583513817
 10
22.6309611089
 20
93.7907486573
 10
22.2866035856
 20
93.8860136075
 10
21.9658246012
 20
94.0410629313
 10
21.6790063395
 20
94.2508783742
 10
21.4354318271
 20
94.5086691469
 10
21.2429844837
 20
94.806091713
 10
21.1078929707
 20
95.1335198318
 10
21.0345295972
 20
95.4803561167
  0
LWPOLYLINE
  5
82
330
1F
100
AcDbEntity
  8
0
  6
Continuous
 62
     7
100
AcDbPolyline
 90
        9
 70
   128
 43
0.0
 10
-7.9444121417
 20
167.3211679391
 10
-7.928738418
 20
167.740003457
 10
-8.0025943167
 20
168.1515856541
 10
-8.1626557135
 20
168.5373899392
 10
-8.4017185262
 20
168.8800519393
 10
-8.7090229577
 20
169.16414904
 10
-9.0707377757
 20
169.37689453
 10
-9.4705828318
 20
169.5087131089
 10
-9.8905618028
 20
169.5536718538
  0
LWPOLYLINE
  5
83
330
1F
100
AcDbEntity
  8
0
  6
Continuous
 62
     7
100
AcDbPolyline
 90
        9
 70
   128
 43
0.0
 10
12.5802185939
 20
167.2959353525
 10
12.5761503911
 20
167.7147951407
 10
12.6614077877
 20
168.1261817271
 10
12.8321534982
 20
168.5115793242
 10
13.0807025583
 20
168.8536418636
 10
13.3958682115
 20
169.1369737116
 10
13.7634654056
 20
169.3488225995
 10
14.1669492369
 20
169.4796535812
 10
14.5881596074
 20
169.5235781841
  0
LWPOLYLINE
  5
84
330
1F
100
AcDbEntity
  8
0
  6
Continuous
 62
     7
100
AcDbPolyline
 90
        9
 70
   128
 43
0.0
 10
-69.7819315661
 20
0.0857855653
 10
-70.7530301327
 20
0.1818452023
 10
-71.6841814163
 20
0.4639417475
 10
-72.5396017952
 20
0.921234389
 10
-73.2864179441
 20
1.536149627
 10
-73.8959301371
 20
2.2850566137
 10
-74.3447151624
 20
3.1391752736
 10
-74.6155264634
 20
4.0656823057
 10
-74.6979569134
 20
5.0289725642
  0
LWPOLYLINE
  5
85
330
1F
100
AcDbEntity
  8
0
  6
Continuous
 62
     7
100
AcDbPolyline
 90
        9
 70
   128
 43
0.0
 10
74.8347535854
 20
4.8451463528
 10
74.7256354285
 20
3.8820915722
 10
74.4291620144
 20
2.9562819246
 10
73.9567266501
 20
2.1032957557
 10
73.3264847616
 20
1.3559128456
 10
72.5626561914
 20
0.7428547002
 10
71.6945944429
 20
0.2876808005
 10
70.7556586424
 20
0.007883224
 10
69.7819315661
 20
-0.0857855653
  0
LWPOLYLINE
  5
86
330
1F
100
AcDbEntity
  8
0
  6
Continuous
 62
     7
100
AcDbPolyline
 90
        9
 70
   128
 43
0.0
 10
-73.5354500108
 20
88.9398691724
 10
-73.426331854
 20
89.902923953
 10
-73.1298584399
 20
90.8287336005
 10
-72.6574230755
 20
91.6817197694
 10
-72.027181187
 20
92.4291026796
 10
-71.2633526168
 20
93.0421608249
 10
-70.3952908683
 20
93.4973347247
 10
-69.4563550678
 20
93.7771323012
 10
-68.4826279915
 20
93.8708010905
  0
LWPOLYLINE
  5
87
330
1F
100
AcDbEntity
  8
0
  6
Continuous
 62
     7
100
AcDbPolyline
 90
        9
 70
   128
 43
0.0
 10
75.9972604642
 20
88.7560412465
 10
75.9148300142
 20
89.7193315051
 10
75.6440187133
 20
90.6458385371
 10
75.1952336879
 20
91.4999571971
 10
74.5857214949
 20
92.2488641838
 10
73.838905346
 20
92.8637794217
 10
72.9834849671
 20
93.3210720632
 10
72.0523336835
 20
93.6031686084
 10
71.0812351169
 20
93.6992282454
  0
LWPOLYLINE
  5
88
330
1F
100
AcDbEntity
  8
0
  6
Continuous
 62
     7
100
AcDbPolyline
 90
        9
 70
   128
 43
0.0
 10
27.6539480139
 20
197.1555212704
 10
27.2644571834
 20
197.1180537547
 10
26.8888828632
 20
197.0061347241
 10
26.5416581638
 20
196.8240651642
 10
26.2361267357
 20
196.578841906
 10
25.9840299803
 20
196.279888742
 10
25.7950558346
 20
195.9386942744
 10
25.676466469
 20
195.5683704154
 10
25.6328192062
 20
195.1831485031
  0
LWPOLYLINE
  5
89
330
1F
100
AcDbEntity
  8
0
  6
Continuous
 62
     7
100
AcDbPolyline
 90
        9
 70
   128
 43
0.0
 10
-20.2238786801
 20
195.2395218747
 10
-20.2568508601
 20
195.6248379781
 10
-20.3651753804
 20
195.9954407909
 10
-20.5446893906
 20
196.3370882549
 10
-20.7884942678
 20
196.6366510496
 10
-21.0872207273
 20
196.8826171447
 10
-21.4293888789
 20
197.0655342013
 10
-21.8018493923
 20
197.1783728194
 10
-22.190288819
 20
197.2167966742
  0
LWPOLYLINE
  5
8A
330
1F
100
AcDbEntity
  8
0
  6
Continuous
 62
     7
100
AcDbPolyline
 90
        9
 70
   128
 43
0.0
 10
-18.5857806416
 20
169.5643615888
 10
-18.9742200558
 20
169.6027854582
 10
-19.3466805548
 20
169.7156240862
 10
-19.6888486913
 20
169.8985411479
 10
-19.9875751364
 20
170.1445072437
 10
-20.2313800011
 20
170.4440700347
 10
-20.4108940016
 20
170.7857174918
 10
-20.5192185159
 20
171.1563202953
 10
-20.552190694
 20
171.5416363882
  0
LWPOLYLINE
  5
8B
330
1F
100
AcDbEntity
  8
0
  6
Continuous
 62
     7
100
AcDbPolyline
 90
        9
 70
   128
 43
0.0
 10
23.2833782731
 20
169.5128884494
 10
23.6728691157
 20
169.5503559505
 10
24.0484434501
 20
169.6622749711
 10
24.3956681644
 20
169.8443445258
 10
24.7011996069
 20
170.0895677834
 10
24.9532963749
 20
170.388520951
 10
25.1422705304
 20
170.7297154255
 10
25.2608599024
 20
171.1000392938
 10
25.3045071674
 20
171.4852612165
  0
LWPOLYLINE
  5
8C
330
1F
100
AcDbEntity
  8
0
  6
Continuous
 62
     7
100
AcDbPolyline
 90
        9
 70
   128
 43
0.0
 10
-28.8128106285
 20
222.8980844149
 10
-28.7691633657
 20
223.2833063271
 10
-28.6505740001
 20
223.6536301861
 10
-28.4615998544
 20
223.9948246537
 10
-28.209503099
 20
224.2937778177
 10
-27.9039716709
 20
224.5390010759
 10
-27.5567469715
 20
224.7210706358
 10
-27.1811726513
 20
224.8329896664
 10
-26.7916818208
 20
224.8704571821
  0
LWPOLYLINE
  5
8D
330
1F
100
AcDbEntity
  8
0
  6
Continuous
 62
     7
100
AcDbPolyline
 90
        9
 70
   128
 43
0.0
 10
34.9878125177
 20
222.819651898
 10
34.9548403377
 20
223.2049680014
 10
34.8465158173
 20
223.5755708142
 10
34.6670018071
 20
223.9172182782
 10
34.4231969299
 20
224.2167810729
 10
34.1244704704
 20
224.4627471681
 10
33.7823023188
 20
224.6456642247
 10
33.4098418054
 20
224.7585028427
 10
33.0214023787
 20
224.7969266975
  0
LWPOLYLINE
  5
8E
330
1F
100
AcDbEntity
  8
0
  6
Continuous
 62
     7
100
AcDbPolyline
 90
        9
 70
   128
 43
0.0
 10
32.6383716972
 20
197.14939373
 10
33.0278625277
 20
197.1868612457
 10
33.4034368479
 20
197.2987802763
 10
33.7506615473
 20
197.4808498362
 10
34.0561929754
 20
197.7260730944
 10
34.3082897308
 20
198.0250262584
 10
34.4972638766
 20
198.366220726
 10
34.6158532422
 20
198.736544585
 10
34.6595005049
 20
199.1217664972
  0
LWPOLYLINE
  5
8F
330
1F
100
AcDbEntity
  8
0
  6
Continuous
 62
     7
100
AcDbPolyline
 90
        9
 70
   128
 43
0.0
 10
-27.1747125023
 20
197.2229242146
 10
-27.5631519289
 20
197.2613480694
 10
-27.9356124423
 20
197.3741866875
 10
-28.2777805939
 20
197.5571037441
 10
-28.5765070535
 20
197.8030698392
 10
-28.8203119307
 20
198.1026326339
 10
-28.9998259408
 20
198.4442800979
 10
-29.1081504612
 20
198.8148829107
 10
-29.1411226412
 20
199.2001990141
  0
LWPOLYLINE
  5
90
330
1F
100
AcDbEntity
  8
0
  6
Continuous
 62
     7
100
AcDbPolyline
 90
        9
 70
   128
 43
0.0
 10
13.0837076456
 20
224.8214368591
 10
12.6952682189
 20
224.8598607138
 10
12.3228077055
 20
224.9726993319
 10
11.9806395539
 20
225.1556163885
 10
11.6819130944
 20
225.4015824837
 10
11.4381082172
 20
225.7011452784
 10
11.258594207
 20
226.0427927424
 10
11.1502696867
 20
226.4133955552
 10
11.1172975067
 20
226.7987116586
  0
LWPOLYLINE
  5
91
330
1F
100
AcDbEntity
  8
0
  6
Continuous
 62
     7
100
AcDbPolyline
 90
        9
 70
   128
 43
0.0
 10
-4.8328582799
 20
226.8183197878
 10
-4.8765055426
 20
226.4330978756
 10
-4.9950949082
 20
226.0627740166
 10
-5.184069054
 20
225.721579549
 10
-5.4361658094
 20
225.4226263849
 10
-5.7416972375
 20
225.1774031268
 10
-6.0889219369
 20
224.9953335669
 10
-6.4644962571
 20
224.8834145363
 10
-6.8539870876
 20
224.8459470206
  0
LWPOLYLINE
  5
92
330
1F
100
AcDbEntity
  8
0
  6
Continuous
 62
     7
100
AcDbPolyline
 90
        9
 70
   128
 43
0.0
 10
9.3013637069
 20
239.6375172668
 10
9.6898031335
 20
239.599093412
 10
10.062263647
 20
239.4862547939
 10
10.4044317986
 20
239.3033377374
 10
10.7031582581
 20
239.0573716422
 10
10.9469631353
 20
238.7578088475
 10
11.1264771454
 20
238.4161613835
 10
11.2348016658
 20
238.0455585707
 10
11.2677738458
 20
237.6602424673
  0
LWPOLYLINE
  5
93
330
1F
100
AcDbEntity
  8
0
  6
Continuous
 62
     7
100
AcDbPolyline
 90
        9
 70
   128
 43
0.0
 10
-2.661253133
 20
239.6522233637
 10
-3.0507439635
 20
239.614755848
 10
-3.4263182837
 20
239.5028368174
 10
-3.7735429831
 20
239.3207672575
 10
-4.0790744112
 20
239.0755439994
 10
-4.3311711666
 20
238.7765908353
 10
-4.5201453123
 20
238.4353963677
 10
-4.638734678
 20
238.0650725087
 10
-4.6823819407
 20
237.6798505965
  0
LINE
  5
94
330
1F
100
AcDbEntity
  8
0
  6
Continuous
 62
     7
100
AcDbLine
 10
-7.2917364961
 20
193.2487622859
 30
0.0
 11
12.6459582371
 21
193.2242521244
 31
0.0
  0
LINE
  5
95
330
1F
100
AcDbEntity
  8
0
  6
Continuous
 62
     7
100
AcDbLine
 10
12.6459582371
 20
193.2242521244
 30
0.0
 11
12.5775599011
 21
188.2871926659
 31
0.0
  0
LINE
  5
96
330
1F
100
AcDbEntity
  8
0
  6
Continuous
 62
     7
100
AcDbLine
 10
-7.2917364961
 20
193.2487622859
 30
0.0
 11
-7.3601348321
 21
188.3117028274
 31
0.0
  0
LINE
  5
97
330
1F
100
AcDbEntity
  8
0
  6
Continuous
 62
     7
100
AcDbLine
 10
-7.3601348321
 20
188.3117028274
 30
0.0
 11
12.5775599011
 21
188.2871926659
 31
0.0
  0
LINE
  5
98
330
1F
100
AcDbEntity
  8
0
  6
Continuous
 62
     7
100
AcDbLine
 10
46.1603864981
 20
21.8641706242
 30
0.0
 11
46.3861010068
 21
38.1564668372
 31
0.0
  0
LINE
  5
99
330
1F
100
AcDbEntity
  8
0
  6
Continuous
 62
     7
100
AcDbLine
 10
39.1137950055
 20
16.9356897222
 30
0.0
 11
43.1013339521
 21
16.9307876899
 31
0.0
  0
LINE
  5
9A
330
1F
100
AcDbEntity
  8
0
  6
Continuous
 62
     7
100
AcDbLine
 10
39.1821933415
 20
21.8727491807
 30
0.0
 11
39.1137950055
 21
16.9356897222
 31
0.0
  0
LINE
  5
9B
330
1F
100
AcDbEntity
  8
0
  6
Continuous
 62
     7
100
AcDbLine
 10
43.1697322881
 20
21.8678471484
 30
0.0
 11
39.1821933415
 21
21.8727491807
 31
0.0
  0
LINE
  5
9C
330
1F
100
AcDbEntity
  8
0
  6
Continuous
 62
     7
100
AcDbLine
 10
50.1479254447
 20
21.8592685919
 30
0.0
 11
46.1603864981
 21
21.8641706242
 31
0.0
  0
LINE
  5
9D
330
1F
100
AcDbEntity
  8
0
  6
Continuous
 62
     7
100
AcDbLine
 10
50.0795271087
 20
16.9222091334
 30
0.0
 11
50.1479254447
 21
21.8592685919
 31
0.0
  0
LINE
  5
9E
330
1F
100
AcDbEntity
  8
0
  6
Continuous
 62
     7
100
AcDbLine
 10
46.0919881621
 20
16.9271111657
 30
0.0
 11
50.0795271087
 21
16.9222091334
 31
0.0
  0
LINE
  5
9F
330
1F
100
AcDbEntity
  8
0
  6
Continuous
 62
     7
100
AcDbLine
 10
46.0441093269
 20
13.4711695447
 30
0.0
 11
43.0534551169
 21
13.474846069
 31
0.0
  0
LINE
  5
A0
330
1F
100
AcDbEntity
  8
0
  6
Continuous
 62
     7
100
AcDbLine
 10
43.0534551169
 20
13.474846069
 30
0.0
 11
43.1013339521
 21
16.9307876899
 31
0.0
  0
LINE
  5
A1
330
1F
100
AcDbEntity
  8
0
  6
Continuous
 62
     7
100
AcDbLine
 10
46.3861010068
 20
38.1564668372
 30
0.0
 11
43.3954467968
 21
38.1601433614
 31
0.0
  0
LINE
  5
A2
330
1F
100
AcDbEntity
  8
0
  6
Continuous
 62
     7
100
AcDbLine
 10
46.0441093269
 20
13.4711695447
 30
0.0
 11
46.0919881621
 21
16.9271111657
 31
0.0
  0
LINE
  5
A3
330
1F
100
AcDbEntity
  8
0
  6
Continuous
 62
     7
100
AcDbLine
 10
70.3537416549
 20
41.1880315076
 30
0.0
 11
70.4768586597
 21
50.0747385329
 31
0.0
  0
LINE
  5
A4
330
1F
100
AcDbEntity
  8
0
  6
Continuous
 62
     7
100
AcDbLine
 10
70.3537416549
 20
41.1880315076
 30
0.0
 11
73.8428382332
 21
41.1837422293
 31
0.0
  0
LINE
  5
A5
330
1F
100
AcDbEntity
  8
0
  6
Continuous
 62
     7
100
AcDbLine
 10
73.965955238
 20
50.0704492546
 30
0.0
 11
73.8428382332
 21
41.1837422293
 31
0.0
  0
LINE
  5
A6
330
1F
100
AcDbEntity
  8
0
  6
Continuous
 62
     7
100
AcDbLine
 10
70.4768586597
 20
50.0747385329
 30
0.0
 11
73.965955238
 21
50.0704492546
 31
0.0
  0
LINE
  5
A7
330
1F
100
AcDbEntity
  8
0
  6
Continuous
 62
     7
100
AcDbLine
 10
48.5453944532
 20
50.1016997106
 30
0.0
 11
52.0344910315
 21
50.0974104323
 31
0.0
  0
LINE
  5
A8
330
1F
100
AcDbEntity
  8
0
  6
Continuous
 62
     7
100
AcDbLine
 10
48.4222774484
 20
41.2149926853
 30
0.0
 11
48.5453944532
 21
50.1016997106
 31
0.0
  0
LINE
  5
A9
330
1F
100
AcDbEntity
  8
0
  6
Continuous
 62
     7
100
AcDbLine
 10
48.4222774484
 20
41.2149926853
 30
0.0
 11
51.9113740267
 21
41.210703407
 31
0.0
  0
LINE
  5
AA
330
1F
100
AcDbEntity
  8
0
  6
Continuous
 62
     7
100
AcDbLine
 10
52.0344910315
 20
50.0974104323
 30
0.0
 11
51.9113740267
 21
41.210703407
 31
0.0
  0
LINE
  5
AB
330
1F
100
AcDbEntity
  8
0
  6
Continuous
 62
     7
100
AcDbLine
 10
43.1697322881
 20
21.8678471484
 30
0.0
 11
43.3954467968
 21
38.1601433614
 31
0.0
  0
LINE
  5
AC
330
1F
100
AcDbEntity
  8
0
  6
Continuous
 62
     7
100
AcDbLine
 10
-45.6692864457
 20
13.5839162878
 30
0.0
 11
-45.6214076105
 21
17.0398579087
 31
0.0
  0
LINE
  5
AD
330
1F
100
AcDbEntity
  8
0
  6
Continuous
 62
     7
100
AcDbLine
 10
-45.6214076105
 20
17.0398579087
 30
0.0
 11
-49.6089465571
 21
17.044759941
 31
0.0
  0
LINE
  5
AE
330
1F
100
AcDbEntity
  8
0
  6
Continuous
 62
     7
100
AcDbLine
 10
-49.6089465571
 20
17.044759941
 30
0.0
 11
-49.5405482211
 21
21.9818193995
 31
0.0
  0
LINE
  5
AF
330
1F
100
AcDbEntity
  8
0
  6
Continuous
 62
     7
100
AcDbLine
 10
-49.5405482211
 20
21.9818193995
 30
0.0
 11
-45.5530092745
 21
21.9769173672
 31
0.0
  0
LINE
  5
B0
330
1F
100
AcDbEntity
  8
0
  6
Continuous
 62
     7
100
AcDbLine
 10
-45.5530092745
 20
21.9769173672
 30
0.0
 11
-45.3272947658
 21
38.2692135802
 31
0.0
  0
LINE
  5
B1
330
1F
100
AcDbEntity
  8
0
  6
Continuous
 62
     7
100
AcDbLine
 10
-45.3272947658
 20
38.2692135802
 30
0.0
 11
-42.3366405558
 21
38.265537056
 31
0.0
  0
LINE
  5
B2
330
1F
100
AcDbEntity
  8
0
  6
Continuous
 62
     7
100
AcDbLine
 10
-42.5623550645
 20
21.973240843
 30
0.0
 11
-42.3366405558
 21
38.265537056
 31
0.0
  0
LINE
  5
B3
330
1F
100
AcDbEntity
  8
0
  6
Continuous
 62
     7
100
AcDbLine
 10
-42.5623550645
 20
21.973240843
 30
0.0
 11
-38.5748161179
 21
21.9683388107
 31
0.0
  0
LINE
  5
B4
330
1F
100
AcDbEntity
  8
0
  6
Continuous
 62
     7
100
AcDbLine
 10
-38.5748161179
 20
21.9683388107
 30
0.0
 11
-38.6432144539
 21
17.0312793522
 31
0.0
  0
LINE
  5
B5
330
1F
100
AcDbEntity
  8
0
  6
Continuous
 62
     7
100
AcDbLine
 10
-38.6432144539
 20
17.0312793522
 30
0.0
 11
-42.6307534005
 21
17.0361813845
 31
0.0
  0
LINE
  5
B6
330
1F
100
AcDbEntity
  8
0
  6
Continuous
 62
     7
100
AcDbLine
 10
-42.6786322357
 20
13.5802397635
 30
0.0
 11
-42.6307534005
 21
17.0361813845
 31
0.0
  0
LINE
  5
B7
330
1F
100
AcDbEntity
  8
0
  6
Continuous
 62
     7
100
AcDbLine
 10
-45.6692864457
 20
13.5839162878
 30
0.0
 11
-42.6786322357
 21
13.5802397635
 31
0.0
  0
LINE
  5
B8
330
1F
100
AcDbEntity
  8
0
  6
Continuous
 62
     7
100
AcDbLine
 10
-69.7819315661
 20
0.0857855653
 30
0.0
 11
69.7819315661
 21
-0.0857855653
 31
0.0
  0
LINE
  5
B9
330
1F
100
AcDbEntity
  8
0
  6
Continuous
 62
     7
100
AcDbLine
 10
-69.2101214772
 20
41.3596026383
 30
0.0
 11
-72.6992180555
 21
41.3638919166
 31
0.0
  0
LINE
  5
BA
330
1F
100
AcDbEntity
  8
0
  6
Continuous
 62
     7
100
AcDbLine
 10
-72.5761010508
 20
50.2505989418
 30
0.0
 11
-72.6992180555
 21
41.3638919166
 31
0.0
  0
LINE
  5
BB
330
1F
100
AcDbEntity
  8
0
  6
Continuous
 62
     7
100
AcDbLine
 10
-69.0870044725
 20
50.2463096636
 30
0.0
 11
-72.5761010508
 21
50.2505989418
 31
0.0
  0
LINE
  5
BC
330
1F
100
AcDbEntity
  8
0
  6
Continuous
 62
     7
100
AcDbLine
 10
-69.2101214772
 20
41.3596026383
 30
0.0
 11
-69.0870044725
 21
50.2463096636
 31
0.0
  0
LINE
  5
BD
330
1F
100
AcDbEntity
  8
0
  6
Continuous
 62
     7
100
AcDbLine
 10
-47.2786572708
 20
41.3326414606
 30
0.0
 11
-47.155540266
 21
50.2193484859
 31
0.0
  0
LINE
  5
BE
330
1F
100
AcDbEntity
  8
0
  6
Continuous
 62
     7
100
AcDbLine
 10
-47.2786572708
 20
41.3326414606
 30
0.0
 11
-50.7677538491
 21
41.3369307389
 31
0.0
  0
LINE
  5
BF
330
1F
100
AcDbEntity
  8
0
  6
Continuous
 62
     7
100
AcDbLine
 10
-50.6446368443
 20
50.2236377642
 30
0.0
 11
-50.7677538491
 21
41.3369307389
 31
0.0
  0
LINE
  5
C0
330
1F
100
AcDbEntity
  8
0
  6
Continuous
 62
     7
100
AcDbLine
 10
-47.155540266
 20
50.2193484859
 30
0.0
 11
-50.6446368443
 21
50.2236377642
 31
0.0
  0
LINE
  5
C1
330
1F
100
AcDbEntity
  8
0
  6
Continuous
 62
     7
100
AcDbLine
 10
-2.661253133
 20
239.6522233637
 30
0.0
 11
9.3013637069
 21
239.6375172668
 31
0.0
  0
LINE
  5
C2
330
1F
100
AcDbEntity
  8
0
  6
Continuous
 62
     7
100
AcDbLine
 10
-4.6823819407
 20
237.6798505965
 30
0.0
 11
-4.8328582799
 21
226.8183197878
 31
0.0
  0
LINE
  5
C3
330
1F
100
AcDbEntity
  8
0
  6
Continuous
 62
     7
100
AcDbLine
 10
11.2677738458
 20
237.6602424673
 30
0.0
 11
11.1172975067
 21
226.7987116586
 31
0.0
  0
LINE
  5
C4
330
1F
100
AcDbEntity
  8
0
  6
Continuous
 62
     7
100
AcDbLine
 10
25.3045071674
 20
171.4852612165
 30
0.0
 11
25.6328192062
 21
195.1831485031
 31
0.0
  0
LINE
  5
C5
330
1F
100
AcDbEntity
  8
0
  6
Continuous
 62
     7
100
AcDbLine
 10
-18.5857806416
 20
169.5643615888
 30
0.0
 11
-9.8905618028
 21
169.5536718538
 31
0.0
  0
LINE
  5
C6
330
1F
100
AcDbEntity
  8
0
  6
Continuous
 62
     7
100
AcDbLine
 10
-27.1747125023
 20
197.2229242146
 30
0.0
 11
-22.190288819
 21
197.2167966742
 31
0.0
  0
LINE
  5
C7
330
1F
100
AcDbEntity
  8
0
  6
Continuous
 62
     7
100
AcDbLine
 10
34.6595005049
 20
199.1217664972
 30
0.0
 11
34.9878125177
 21
222.819651898
 31
0.0
  0
LINE
  5
C8
330
1F
100
AcDbEntity
  8
0
  6
Continuous
 62
     7
100
AcDbLine
 10
-29.1411226412
 20
199.2001990141
 30
0.0
 11
-28.8128106285
 21
222.8980844149
 31
0.0
  0
LINE
  5
C9
330
1F
100
AcDbEntity
  8
0
  6
Continuous
 62
     7
100
AcDbLine
 10
33.0214023787
 20
224.7969266975
 30
0.0
 11
13.0837076456
 21
224.8214368591
 31
0.0
  0
LINE
  5
CA
330
1F
100
AcDbEntity
  8
0
  6
Continuous
 62
     7
100
AcDbLine
 10
13.0837075874
 20
224.8214326587
 30
0.0
 11
13.0838072759
 21
224.8214325362
 31
0.0
  0
LINE
  5
CB
330
1F
100
AcDbEntity
  8
0
  6
Continuous
 62
     7
100
AcDbLine
 10
-26.7916818208
 20
224.8704571821
 30
0.0
 11
-6.8539870876
 21
224.8459470206
 31
0.0
  0
LINE
  5
CC
330
1F
100
AcDbEntity
  8
0
  6
Continuous
 62
     7
100
AcDbLine
 10
-20.552190694
 20
171.5416363882
 30
0.0
 11
-20.2238786801
 21
195.2395218747
 31
0.0
  0
LINE
  5
CD
330
1F
100
AcDbEntity
  8
0
  6
Continuous
 62
     7
100
AcDbLine
 10
27.6539480139
 20
197.1555212704
 30
0.0
 11
32.6383716972
 21
197.14939373
 31
0.0
  0
LINE
  5
CE
330
1F
100
AcDbEntity
  8
0
  6
Continuous
 62
     7
100
AcDbLine
 10
21.0345295972
 20
95.4803561167
 30
0.0
 11
12.5802185939
 21
167.2959353525
 31
0.0
  0
LINE
  5
CF
330
1F
100
AcDbEntity
  8
0
  6
Continuous
 62
     7
100
AcDbLine
 10
-18.3882827998
 20
95.5288216141
 30
0.0
 11
-7.9444121417
 21
167.3211679391
 31
0.0
  0
LINE
  5
D0
330
1F
100
AcDbEntity
  8
0
  6
Continuous
 62
     7
100
AcDbLine
 10
14.5881596074
 20
169.5235781841
 30
0.0
 11
23.2833782731
 21
169.5128884494
 31
0.0
  0
LINE
  5
D1
330
1F
100
AcDbEntity
  8
0
  6
Continuous
 62
     7
100
AcDbLine
 10
74.8347535854
 20
4.8451463528
 30
0.0
 11
75.9972604642
 21
88.7560412465
 31
0.0
  0
LINE
  5
D2
330
1F
100
AcDbEntity
  8
0
  6
Continuous
 62
     7
100
AcDbLine
 10
22.9877518554
 20
93.7583513817
 30
0.0
 11
71.0812351169
 21
93.6992282454
 31
0.0
  0
LINE
  5
D3
330
1F
100
AcDbEntity
  8
0
  6
Continuous
 62
     7
100
AcDbLine
 10
-20.3891512163
 20
93.8116779622
 30
0.0
 11
-68.4826279915
 21
93.8708010905
 31
0.0
  0
LINE
  5
D4
330
1F
100
AcDbEntity
  8
0
  6
Continuous
 62
     7
100
AcDbLine
 10
-74.6979569134
 20
5.0289725642
 30
0.0
 11
-73.5354500108
 21
88.9398691724
 31
0.0
  0
LINE
  5
D5
330
1F
100
AcDbEntity
  8
0
  6
Continuous
 62
     7
100
AcDbLine
 10
12.4649343788
 20
168.2752230415
 30
0.0
 11
12.2023620478
 21
170.5056571987
 31
0.0
  0
LINE
  5
D6
330
1F
100
AcDbEntity
  8
0
  6
Continuous
 62
     7
100
AcDbLine
 10
13.5912748713
 20
169.5248037351
 30
0.0
 11
11.3207615269
 21
169.5275950606
 31
0.0
  0
LINE
  5
D7
330
1F
100
AcDbEntity
  8
0
  6
Continuous
 62
     7
100
AcDbLine
 10
26.6570632773
 20
197.1567467785
 30
0.0
 11
24.663293804
 21
197.1591977946
 31
0.0
  0
LINE
  5
D8
330
1F
100
AcDbEntity
  8
0
  6
Continuous
 62
     7
100
AcDbLine
 10
25.6464988734
 20
196.1705603948
 30
0.0
 11
25.6738582078
 21
198.1453841782
 31
0.0
  0
POINT
  5
D9
330
1F
100
AcDbEntity
  8
0
  6
Continuous
 62
     7
100
AcDbPoint
 10
0.0
 20
0.0
 30
0.0
  0
POINT
  5
DA
330
1F
100
AcDbEntity
  8
0
  6
Continuous
 62
     7
100
AcDbPoint
 10
2.7318295393
 20
197.186154772
 30
0.0
  0
POINT
  5
DB
330
1F
100
AcDbEntity
  8
0
  6
Continuous
 62
     7
100
AcDbPoint
 10
2.3487988578
 20
169.5386218044
 30
0.0
  0
POINT
  5
DC
330
1F
100
AcDbEntity
  8
0
  6
Continuous
 62
     7
100
AcDbPoint
 10
1.2993035182
 20
93.7850114534
 30
0.0
  0
POINT
  5
DD
330
1F
100
AcDbEntity
  8
0
  6
Continuous
 62
     7
100
AcDbPoint
 10
2.3487988578
 20
169.5386218044
 30
0.0
  0
POINT
  5
DE
330
1F
100
AcDbEntity
  8
0
  6
Continuous
 62
     7
100
AcDbPoint
 10
2.3214395234
 20
167.563798021
 30
0.0
  0
POINT
  5
DF
330
1F
100
AcDbEntity
  8
0
  6
Continuous
 62
     7
100
AcDbPoint
 10
1.2993035182
 20
93.7850114534
 30
0.0
  0
POINT
  5
E0
330
1F
100
AcDbEntity
  8
0
  6
Continuous
 62
     7
100
AcDbPoint
 10
3.320055287
 20
239.6448703153
 30
0.0
  0
POINT
  5
E1
330
1F
100
AcDbEntity
  8
0
  6
Continuous
 62
     7
100
AcDbPoint
 10
0.0
 20
0.0
 30
0.0
  0
POINT
  5
E2
330
1F
100
AcDbEntity
  8
0
  6
Continuous
 62
     7
100
AcDbPoint
 10
1.2311700477
 20
88.8670702528
 30
0.0
  0
POINT
  5
E3
330
1F
100
AcDbEntity
  8
0
  6
Continuous
 62
     7
100
AcDbPoint
 10
0.0
 20
0.0
 30
0.0
  0
ENDSEC
  0
SECTION
  2
OBJECTS
  0
DICTIONARY
  5
C
330
0
100
AcDbDictionary
281
     1
  3
ACAD_GROUP
350
D
  3
ACAD_LAYOUT
350
1A
  3
ACAD_MLINESTYLE
350
17
  3
ACAD_PLOTSETTINGS
350
19
  3
ACAD_PLOTSTYLENAME
350
E
  3
ACAD_SCALELIST
350
47
  0
DICTIONARY
  5
D
102
{ACAD_REACTORS
330
C
102
}
330
C
100
AcDbDictionary
281
     1
  0
DICTIONARY
  5
1A
102
{ACAD_REACTORS
330
C
102
}
330
C
100
AcDbDictionary
281
     1
  3
Layout1
350
1E
  3
Layout2
350
26
  3
Model
350
22
  0
DICTIONARY
  5
17
102
{ACAD_REACTORS
330
C
102
}
330
C
100
AcDbDictionary
281
     1
  3
Standard
350
18
  0
DICTIONARY
  5
19
102
{ACAD_REACTORS
330
C
102
}
330
C
100
AcDbDictionary
281
     1
  0
ACDBDICTIONARYWDFLT
  5
E
102
{ACAD_REACTORS
330
C
102
}
330
C
100
AcDbDictionary
281
     1
  3
Normal
350
F
100
AcDbDictionaryWithDefault
340
F
  0
DICTIONARY
  5
47
102
{ACAD_REACTORS
330
C
102
}
330
C
100
AcDbDictionary
281
     1
  3
A0
350
48
  3
A1
350
49
  3
A2
350
4A
  3
A3
350
4B
  3
A4
350
4C
  3
A5
350
4D
  3
A6
350
4E
  3
A7
350
4F
  3
A8
350
50
  3
A9
350
51
  3
B0
350
52
  3
B1
350
53
  3
B2
350
54
  3
B3
350
55
  3
B4
350
56
  3
B5
350
57
  3
B6
350
58
  3
B7
350
59
  3
B8
350
5A
  3
B9
350
5B
  3
C0
350
5C
  3
C1
350
5D
  3
C2
350
5E
  3
C3
350
5F
  3
C4
350
60
  3
C5
350
61
  3
C6
350
62
  3
C7
350
63
  3
C8
350
64
  3
C9
350
65
  3
D0
350
66
  3
D1
350
67
  3
D2
350
68
  0
LAYOUT
  5
1E
102
{ACAD_REACTORS
330
1A
102
}
330
1A
100
AcDbPlotSettings
  1

  2
none_device
  4

  6

 40
0.0
 41
0.0
 42
0.0
 43
0.0
 44
0.0
 45
0.0
 46
0.0
 47
0.0
 48
0.0
 49
0.0
140
0.0
141
0.0
142
1.0
143
1.0
 70
   688
 72
     1
 73
     0
 74
     5
  7

 75
    16
147
1.0
148
0.0
149
0.0
100
AcDbLayout
  1
Layout1
 70
     1
 71
     1
 10
0.0
 20
0.0
 11
420.0
 21
297.0
 12
0.0
 22
0.0
 32
0.0
 14
1.0000000000E+20
 24
1.0000000000E+20
 34
1.0000000000E+20
 15
-1.0000000000E+20
 25
-1.0000000000E+20
 35
-1.0000000000E+20
146
0.0
 13
0.0
 23
0.0
 33
0.0
 16
1.0
 26
0.0
 36
0.0
 17
0.0
 27
1.0
 37
0.0
 76
     0
330
1B
  0
LAYOUT
  5
26
102
{ACAD_REACTORS
330
1A
102
}
330
1A
100
AcDbPlotSettings
  1

  2
none_device
  4

  6

 40
0.0
 41
0.0
 42
0.0
 43
0.0
 44
0.0
 45
0.0
 46
0.0
 47
0.0
 48
0.0
 49
0.0
140
0.0
141
0.0
142
1.0
143
1.0
 70
   688
 72
     1
 73
     0
 74
     5
  7

 75
    16
147
1.0
148
0.0
149
0.0
100
AcDbLayout
  1
Layout2
 70
     1
 71
     2
 10
0.0
 20
0.0
 11
0.0
 21
0.0
 12
0.0
 22
0.0
 32
0.0
 14
0.0
 24
0.0
 34
0.0
 15
0.0
 25
0.0
 35
0.0
146
0.0
 13
0.0
 23
0.0
 33
0.0
 16
1.0
 26
0.0
 36
0.0
 17
0.0
 27
1.0
 37
0.0
 76
     0
330
23
  0
LAYOUT
  5
22
102
{ACAD_REACTORS
330
1A
102
}
330
1A
100
AcDbPlotSettings
  1

  2
none_device
  4
ANSI_A_(11.00_x_8.50_Inches)
  6

 40
6.35
 41
19.05
 42
6.35000508
 43
19.05000254
 44
279.4
 45
215.9
 46
132.7707934333
 47
-17.8940182267
 48
0.0
 49
0.0
140
0.0
141
0.0
142
0.0351008171
143
1.0
 70
  1696
 72
     0
 73
     0
 74
     0
  7

 75
     0
147
0.0179189148
148
-1300.4909072572
149
0.0
100
AcDbLayout
  1
Model
 70
     1
 71
     0
 10
0.0
 20
0.0
 11
420.0
 21
297.0
 12
0.0
 22
0.0
 32
0.0
 14
-74.6979569134
 24
-0.0857855653
 34
0.0
 15
75.9972604642
 25
239.6522233637
 35
0.0
146
0.0
 13
0.0
 23
0.0
 33
0.0
 16
1.0
 26
0.0
 36
0.0
 17
0.0
 27
1.0
 37
0.0
 76
     0
330
1F
331
29
  0
MLINESTYLE
  5
18
102
{ACAD_REACTORS
330
17
102
}
330
17
100
AcDbMlineStyle
  2
Standard
 70
     0
  3

 62
   256
 51
90.0
 52
90.0
 71
     2
 49
0.5
 62
   256
  6
BYLAYER
 49
-0.5
 62
   256
  6
BYLAYER
  0
ACDBPLACEHOLDER
  5
F
102
{ACAD_REACTORS
330
E
102
}
330
E
  0
SCALE
  5
48
102
{ACAD_REACTORS
330
47
102
}
330
47
100
AcDbScale
 70
     0
300
1:1
140
1.0
141
1.0
290
     1
  0
SCALE
  5
49
102
{ACAD_REACTORS
330
47
102
}
330
47
100
AcDbScale
 70
     0
300
1:2
140
1.0
141
2.0
290
     0
  0
SCALE
  5
4A
102
{ACAD_REACTORS
330
47
102
}
330
47
100
AcDbScale
 70
     0
300
1:4
140
1.0
141
4.0
290
     0
  0
SCALE
  5
4B
102
{ACAD_REACTORS
330
47
102
}
330
47
100
AcDbScale
 70
     0
300
1:5
140
1.0
141
5.0
290
     0
  0
SCALE
  5
4C
102
{ACAD_REACTORS
330
47
102
}
330
47
100
AcDbScale
 70
     0
300
1:8
140
1.0
141
8.0
290
     0
  0
SCALE
  5
4D
102
{ACAD_REACTORS
330
47
102
}
330
47
100
AcDbScale
 70
     0
300
1:10
140
1.0
141
10.0
290
     0
  0
SCALE
  5
4E
102
{ACAD_REACTORS
330
47
102
}
330
47
100
AcDbScale
 70
     0
300
1:16
140
1.0
141
16.0
290
     0
  0
SCALE
  5
4F
102
{ACAD_REACTORS
330
47
102
}
330
47
100
AcDbScale
 70
     0
300
1:20
140
1.0
141
20.0
290
     0
  0
SCALE
  5
50
102
{ACAD_REACTORS
330
47
102
}
330
47
100
AcDbScale
 70
     0
300
1:30
140
1.0
141
30.0
290
     0
  0
SCALE
  5
51
102
{ACAD_REACTORS
330
47
102
}
330
47
100
AcDbScale
 70
     0
300
1:40
140
1.0
141
40.0
290
     0
  0
SCALE
  5
52
102
{ACAD_REACTORS
330
47
102
}
330
47
100
AcDbScale
 70
     0
300
1:50
140
1.0
141
50.0
290
     0
  0
SCALE
  5
53
102
{ACAD_REACTORS
330
47
102
}
330
47
100
AcDbScale
 70
     0
300
1:100
140
1.0
141
100.0
290
     0
  0
SCALE
  5
54
102
{ACAD_REACTORS
330
47
102
}
330
47
100
AcDbScale
 70
     0
300
2:1
140
2.0
141
1.0
290
     0
  0
SCALE
  5
55
102
{ACAD_REACTORS
330
47
102
}
330
47
100
AcDbScale
 70
     0
300
4:1
140
4.0
141
1.0
290
     0
  0
SCALE
  5
56
102
{ACAD_REACTORS
330
47
102
}
330
47
100
AcDbScale
 70
     0
300
8:1
140
8.0
141
1.0
290
     0
  0
SCALE
  5
57
102
{ACAD_REACTORS
330
47
102
}
330
47
100
AcDbScale
 70
     0
300
10:1
140
10.0
141
1.0
290
     0
  0
SCALE
  5
58
102
{ACAD_REACTORS
330
47
102
}
330
47
100
AcDbScale
 70
     0
300
100:1
140
100.0
141
1.0
290
     0
  0
SCALE
  5
59
102
{ACAD_REACTORS
330
47
102
}
330
47
100
AcDbScale
 70
     0
300
1/128" = 1'-0"
140
0.0078125
141
12.0
290
     0
  0
SCALE
  5
5A
102
{ACAD_REACTORS
330
47
102
}
330
47
100
AcDbScale
 70
     0
300
1/64" = 1'-0"
140
0.015625
141
12.0
290
     0
  0
SCALE
  5
5B
102
{ACAD_REACTORS
330
47
102
}
330
47
100
AcDbScale
 70
     0
300
1/32" = 1'-0"
140
0.03125
141
12.0
290
     0
  0
SCALE
  5
5C
102
{ACAD_REACTORS
330
47
102
}
330
47
100
AcDbScale
 70
     0
300
1/16" = 1'-0"
140
0.0625
141
12.0
290
     0
  0
SCALE
  5
5D
102
{ACAD_REACTORS
330
47
102
}
330
47
100
AcDbScale
 70
     0
300
3/32" = 1'-0"
140
0.09375
141
12.0
290
     0
  0
SCALE
  5
5E
102
{ACAD_REACTORS
330
47
102
}
330
47
100
AcDbScale
 70
     0
300
1/8" = 1'-0"
140
0.125
141
12.0
290
     0
  0
SCALE
  5
5F
102
{ACAD_REACTORS
330
47
102
}
330
47
100
AcDbScale
 70
     0
300
3/16" = 1'-0"
140
0.1875
141
12.0
290
     0
  0
SCALE
  5
60
102
{ACAD_REACTORS
330
47
102
}
330
47
100
AcDbScale
 70
     0
300
1/4" = 1'-0"
140
0.25
141
12.0
290
     0
  0
SCALE
  5
61
102
{ACAD_REACTORS
330
47
102
}
330
47
100
AcDbScale
 70
     0
300
3/8" = 1'-0"
140
0.375
141
12.0
290
     0
  0
SCALE
  5
62
102
{ACAD_REACTORS
330
47
102
}
330
47
100
AcDbScale
 70
     0
300
1/2" = 1'-0"
140
0.5
141
12.0
290
     0
  0
SCALE
  5
63
102
{ACAD_REACTORS
330
47
102
}
330
47
100
AcDbScale
 70
     0
300
3/4" = 1'-0"
140
0.75
141
12.0
290
     0
  0
SCALE
  5
64
102
{ACAD_REACTORS
330
47
102
}
330
47
100
AcDbScale
 70
     0
300
1" = 1'-0"
140
1.0
141
12.0
290
     0
  0
SCALE
  5
65
102
{ACAD_REACTORS
330
47
102
}
330
47
100
AcDbScale
 70
     0
300
1-1/2" = 1'-0"
140
1.5
141
12.0
290
     0
  0
SCALE
  5
66
102
{ACAD_REACTORS
330
47
102
}
330
47
100
AcDbScale
 70
     0
300
3" = 1'-0"
140
3.0
141
12.0
290
     0
  0
SCALE
  5
67
102
{ACAD_REACTORS
330
47
102
}
330
47
100
AcDbScale
 70
     0
300
6" = 1'-0"
140
6.0
141
12.0
290
     0
  0
SCALE
  5
68
102
{ACAD_REACTORS
330
47
102
}
330
47
100
AcDbScale
 70
     0
300
1'-0" = 1'-0"
140
12.0
141
12.0
290
     0
  0
ENDSEC
  0
EOF
